<svg xmlns="http://www.w3.org/2000/svg" viewBox="0 0 200 200" width="200" height="200" role="img" aria-label="다이아몬드 티어"><defs><linearGradient id="yf-diamond-m" x1="0" y1="0" x2="0.35" y2="1"><stop offset="0" stop-color="#c9d3ff"></stop><stop offset="0.45" stop-color="#4b62d8"></stop><stop offset="1" stop-color="#18205f"></stop></linearGradient><linearGradient id="yf-diamond-d" x1="0" y1="0" x2="0" y2="1"><stop offset="0" stop-color="#4b62d8"></stop><stop offset="1" stop-color="#18205f"></stop></linearGradient><linearGradient id="yf-diamond-w" x1="0" y1="0" x2="1" y2="1"><stop offset="0" stop-color="#ffffff"></stop><stop offset="0.45" stop-color="#c9d3ff"></stop><stop offset="1" stop-color="#4b62d8"></stop></linearGradient><radialGradient id="yf-diamond-r" cx="0.38" cy="0.32" r="0.78"><stop offset="0" stop-color="#c9d3ff"></stop><stop offset="0.5" stop-color="#4b62d8"></stop><stop offset="1" stop-color="#18205f"></stop></radialGradient><radialGradient id="yf-diamond-g" cx="0.5" cy="0.5" r="0.5"><stop offset="0" stop-color="#4b62d8" stop-opacity="0.6"></stop><stop offset="1" stop-color="#4b62d8" stop-opacity="0"></stop></radialGradient><linearGradient id="yf-diamond-j" x1="0" y1="0" x2="1" y2="1"><stop offset="0" stop-color="#ffffff"></stop><stop offset="0.4" stop-color="#c9d3ff"></stop><stop offset="1" stop-color="#4b62d8"></stop></linearGradient><pattern id="yf-diamond-x" width="4.6" height="4.6" patternUnits="userSpaceOnUse" patternTransform="rotate(45)"><rect width="4.6" height="4.6" fill="#18205f"></rect><path d="M0 0H4.6M0 0V4.6" stroke="#4b62d8" stroke-width="1.1" stroke-opacity="0.8"></path></pattern></defs><circle cx="100" cy="100" r="98" fill="url(#yf-diamond-g)"></circle><path d="M58 116 C33 116 14 100 5 78 C20 87 31 89 40 87 C23 78 12 63 8 44 C22 58 35 65 46 67 C35 56 30 43 30 28 C43 47 55 58 66 66 Z" fill="url(#yf-diamond-d)" stroke="#18205f" stroke-width="1" stroke-linejoin="round"></path><g transform="matrix(-1 0 0 1 200 0)"><path d="M58 116 C33 116 14 100 5 78 C20 87 31 89 40 87 C23 78 12 63 8 44 C22 58 35 65 46 67 C35 56 30 43 30 28 C43 47 55 58 66 66 Z" fill="url(#yf-diamond-d)" stroke="#18205f" stroke-width="1" stroke-linejoin="round"></path></g><line x1="46.7" y1="181" x2="56" y2="168" stroke="#18205f" stroke-width="4.6" stroke-linecap="round"></line><circle cx="46.7" cy="181" r="3.9" fill="url(#yf-diamond-m)" stroke="#18205f" stroke-width="0.8"></circle><polygon points="58.6,169.9 158.8,24.8 160,22 157.7,24 53.4,166.1" fill="url(#yf-diamond-w)" stroke="#18205f" stroke-width="0.9" stroke-linejoin="round"></polygon><line x1="58.3" y1="164.7" x2="137.1" y2="54.1" stroke="#18205f" stroke-opacity="0.35" stroke-width="0.9"></line><ellipse cx="56" cy="168" rx="7.5" ry="3.6" transform="rotate(35.5 56 168)" fill="url(#yf-diamond-m)" stroke="#18205f" stroke-width="0.9"></ellipse><line x1="153.3" y1="181" x2="144" y2="168" stroke="#18205f" stroke-width="4.6" stroke-linecap="round"></line><circle cx="153.3" cy="181" r="3.9" fill="url(#yf-diamond-m)" stroke="#18205f" stroke-width="0.8"></circle><polygon points="146.6,166.1 42.3,24 40,22 41.2,24.8 141.4,169.9" fill="url(#yf-diamond-w)" stroke="#18205f" stroke-width="0.9" stroke-linejoin="round"></polygon><line x1="141.7" y1="164.7" x2="62.9" y2="54.1" stroke="#18205f" stroke-opacity="0.35" stroke-width="0.9"></line><ellipse cx="144" cy="168" rx="7.5" ry="3.6" transform="rotate(-35.5 144 168)" fill="url(#yf-diamond-m)" stroke="#18205f" stroke-width="0.9"></ellipse><path d="M62 98 C44 94 28 82 20 64 C32 71 43 72 52 70 C39 63 31 52 27 38 C41 51 52 58 64 66 Z" fill="url(#yf-diamond-m)" stroke="#18205f" stroke-width="1" stroke-linejoin="round"></path><g transform="matrix(-1 0 0 1 200 0)"><path d="M62 98 C44 94 28 82 20 64 C32 71 43 72 52 70 C39 63 31 52 27 38 C41 51 52 58 64 66 Z" fill="url(#yf-diamond-m)" stroke="#18205f" stroke-width="1" stroke-linejoin="round"></path></g><polygon points="90,48 100,18 110,48" fill="url(#yf-diamond-m)" stroke="#18205f" stroke-width="1" stroke-linejoin="round"></polygon><path d="M70 130 C80 150 120 150 130 130 L135 166 C118 181 82 181 65 166 Z" fill="url(#yf-diamond-w)" stroke="#18205f" stroke-width="1"></path><path d="M68 158 C86 168 114 168 132 158" fill="none" stroke="#18205f" stroke-opacity="0.35" stroke-width="1"></path><path d="M100 40 C131 40 146 62 146 92 C146 122 128 146 100 153 C72 146 54 122 54 92 C54 62 69 40 100 40 Z" fill="url(#yf-diamond-x)"></path><path d="M100 40 C131 40 146 62 146 92 C146 122 128 146 100 153 C72 146 54 122 54 92 C54 62 69 40 100 40 Z" fill="url(#yf-diamond-r)" fill-opacity="0.32"></path><ellipse cx="82" cy="66" rx="17" ry="9" transform="rotate(-32 82 66)" fill="#ffffff" fill-opacity="0.16"></ellipse><path d="M100 40 C131 40 146 62 146 92 C146 122 128 146 100 153 C72 146 54 122 54 92 C54 62 69 40 100 40 Z" fill="none" stroke="#18205f" stroke-width="9.3"></path><path d="M100 40 C131 40 146 62 146 92 C146 122 128 146 100 153 C72 146 54 122 54 92 C54 62 69 40 100 40 Z" fill="none" stroke="url(#yf-diamond-m)" stroke-width="6.8"></path><polygon points="100,36 107.5,46 100,56 92.5,46" fill="url(#yf-diamond-j)" stroke="#18205f" stroke-width="1" stroke-linejoin="round"></polygon><polygon points="100,36 107.5,46 100,46" fill="#ffffff" fill-opacity="0.35"></polygon></svg>
